<svg width="24" height="18" viewBox="0 0 24 18" fill="none" xmlns="http://www.w3.org/2000/svg">
<path d="M0 3C0 2.20435 0.31607 1.44129 0.87868 0.87868C1.44129 0.31607 2.20435 0 3 0H21C21.7956 0 22.5587 0.31607 23.1213 0.87868C23.6839 1.44129 24 2.20435 24 3V6C23.2044 6 22.4413 6.31607 21.8787 6.87868C21.3161 7.44129 21 8.20435 21 9C21 9.79565 21.3161 10.5587 21.8787 11.1213C22.4413 11.6839 23.2044 12 24 12V15C24 15.7956 23.6839 16.5587 23.1213 17.1213C22.5587 17.6839 21.7956 18 21 18H3C2.20435 18 1.44129 17.6839 0.87868 17.1213C0.31607 16.5587 0 15.7956 0 15V12C0.79565 12 1.55871 11.6839 2.12132 11.1213C2.68393 10.5587 3 9.79565 3 9C3 8.20435 2.68393 7.44129 2.12132 6.87868C1.55871 6.31607 0.79565 6 0 6V3Z" fill="#fff"/>
</svg>
