<svg width="22" height="22" viewBox="0 0 22 22" fill="none" xmlns="http://www.w3.org/2000/svg">
<path fill-rule="evenodd" clip-rule="evenodd" d="M3.5 0.5C2.70435 0.5 1.94129 0.81607 1.37868 1.37868C0.81607 1.94129 0.5 2.70435 0.5 3.5V18.5C0.5 19.2956 0.81607 20.0587 1.37868 20.6213C1.94129 21.1839 2.70435 21.5 3.5 21.5H18.5C19.2956 21.5 20.0587 21.1839 20.6213 20.6213C21.1839 20.0587 21.5 19.2956 21.5 18.5V3.5C21.5 2.70435 21.1839 1.94129 20.6213 1.37868C20.0587 0.81607 19.2956 0.5 18.5 0.5H3.5ZM3.5 3.5H18.5V14H15.5L14 17H8L6.5 14H3.5V3.5Z" fill="#fff"/>
</svg>
