<svg width="24" height="25" viewBox="0 0 24 25" fill="none" xmlns="http://www.w3.org/2000/svg">
<path fill-rule="evenodd" clip-rule="evenodd" d="M24 3.5V15.5C24 16.2956 23.6839 17.0587 23.1213 17.6213C22.5587 18.1839 21.7956 18.5 21 18.5H13.5L6 24.5V18.5H3C2.20435 18.5 1.44129 18.1839 0.87868 17.6213C0.31607 17.0587 0 16.2956 0 15.5V3.5C0 2.70435 0.31607 1.94129 0.87868 1.37868C1.44129 0.81607 2.20435 0.5 3 0.5H21C21.7956 0.5 22.5587 0.81607 23.1213 1.37868C23.6839 1.94129 24 2.70435 24 3.5ZM7.5 8H4.5V11H7.5V8ZM10.5 8H13.5V11H10.5V8ZM19.5 8H16.5V11H19.5V8Z" fill="#fff"/>
</svg>
