<svg width="28" height="22" viewBox="0 0 28 22" fill="none" xmlns="http://www.w3.org/2000/svg">
<path d="M12.5 5C12.5 6.19347 12.0259 7.33807 11.182 8.18198C10.3381 9.0259 9.19347 9.5 8 9.5C6.80653 9.5 5.66193 9.0259 4.81802 8.18198C3.97411 7.33807 3.5 6.19347 3.5 5C3.5 3.80653 3.97411 2.66193 4.81802 1.81802C5.66193 0.974106 6.80653 0.5 8 0.5C9.19347 0.5 10.3381 0.974106 11.182 1.81802C12.0259 2.66193 12.5 3.80653 12.5 5ZM24.5 5C24.5 5.59095 24.3836 6.17611 24.1575 6.72208C23.9313 7.26804 23.5998 7.76412 23.182 8.18198C22.7641 8.59984 22.268 8.93131 21.7221 9.15746C21.1761 9.3836 20.5909 9.5 20 9.5C19.4091 9.5 18.8239 9.3836 18.2779 9.15746C17.732 8.93131 17.2359 8.59984 16.818 8.18198C16.4002 7.76412 16.0687 7.26804 15.8425 6.72208C15.6164 6.17611 15.5 5.59095 15.5 5C15.5 3.80653 15.9741 2.66193 16.818 1.81802C17.6619 0.974106 18.8065 0.5 20 0.5C21.1935 0.5 22.3381 0.974106 23.182 1.81802C24.0259 2.66193 24.5 3.80653 24.5 5ZM18.395 21.5C18.464 21.0095 18.5 20.51 18.5 20C18.5035 17.6433 17.7106 15.3545 16.25 13.505C17.3901 12.8467 18.6834 12.5002 20 12.5002C21.3165 12.5002 22.6098 12.8467 23.7499 13.505C24.8901 14.1632 25.8368 15.11 26.4951 16.2501C27.1534 17.3902 27.5 18.6835 27.5 20V21.5H18.395ZM8 12.5C9.98912 12.5 11.8968 13.2902 13.3033 14.6967C14.7098 16.1032 15.5 18.0109 15.5 20V21.5H0.5V20C0.5 18.0109 1.29018 16.1032 2.6967 14.6967C4.10322 13.2902 6.01088 12.5 8 12.5Z" fill="#fff"/>
</svg>
