<svg width="23" height="23" viewBox="0 0 23 23" fill="none" xmlns="http://www.w3.org/2000/svg">
<path d="M0.5 3.5C0.5 2.70435 0.81607 1.94129 1.37868 1.37868C1.94129 0.81607 2.70435 0.5 3.5 0.5C3.5 1.69347 3.97411 2.83807 4.81802 3.68198C5.66193 4.52589 6.80653 5 8 5H11C12.1935 5 13.3381 4.52589 14.182 3.68198C15.0259 2.83807 15.5 1.69347 15.5 0.5C16.2956 0.5 17.0587 0.81607 17.6213 1.37868C18.1839 1.94129 18.5 2.70435 18.5 3.5V12.5H11.621L13.5605 10.5605C13.8337 10.2776 13.9849 9.89869 13.9815 9.5054C13.9781 9.1121 13.8203 8.73588 13.5422 8.45777C13.2641 8.17966 12.8879 8.02191 12.4946 8.01849C12.1013 8.01507 11.7224 8.16626 11.4395 8.4395L6.9395 12.9395C6.65829 13.2208 6.50032 13.6023 6.50032 14C6.50032 14.3977 6.65829 14.7792 6.9395 15.0605L11.4395 19.5605C11.7224 19.8337 12.1013 19.9849 12.4946 19.9815C12.8879 19.9781 13.2641 19.8203 13.5422 19.5422C13.8203 19.2641 13.9781 18.8879 13.9815 18.4946C13.9849 18.1013 13.8337 17.7224 13.5605 17.4395L11.621 15.5H18.5V20C18.5 20.7956 18.1839 21.5587 17.6213 22.1213C17.0587 22.6839 16.2956 23 15.5 23H3.5C2.70435 23 1.94129 22.6839 1.37868 22.1213C0.81607 21.5587 0.5 20.7956 0.5 20V3.5ZM18.5 12.5H21.5C21.8978 12.5 22.2794 12.658 22.5607 12.9393C22.842 13.2206 23 13.6022 23 14C23 14.3978 22.842 14.7794 22.5607 15.0607C22.2794 15.342 21.8978 15.5 21.5 15.5H18.5V12.5Z" fill="#fff"/>
</svg>
