<svg width="24" height="22" viewBox="0 0 24 22" fill="none" xmlns="http://www.w3.org/2000/svg">
<path d="M10.5735 1.39062C11.0235 0.00911716 12.978 0.00911716 13.4265 1.39062L15.0315 6.32862C15.1295 6.62935 15.3201 6.89139 15.5761 7.07727C15.832 7.26316 16.1401 7.36338 16.4565 7.36362H21.6495C23.103 7.36362 23.706 9.22362 22.5315 10.0786L18.3315 13.1296C18.075 13.3157 17.884 13.5781 17.786 13.8794C17.6879 14.1807 17.6877 14.5052 17.7855 14.8066L19.3905 19.7446C19.8405 21.1261 18.258 22.2766 17.0805 21.4216L12.8805 18.3706C12.6243 18.1846 12.3158 18.0845 11.9992 18.0845C11.6826 18.0845 11.3742 18.1846 11.118 18.3706L6.91796 21.4216C5.74196 22.2766 4.16096 21.1261 4.60946 19.7446L6.21446 14.8066C6.31222 14.5052 6.31205 14.1807 6.21396 13.8794C6.11588 13.5781 5.92492 13.3157 5.66846 13.1296L1.46996 10.0801C0.295461 9.22512 0.899961 7.36512 2.35196 7.36512H7.54346C7.86003 7.3652 8.16851 7.26512 8.42475 7.07922C8.68098 6.8933 8.87182 6.63109 8.96996 6.33012L10.575 1.39212L10.5735 1.39062Z" fill="#fff"/>
</svg>
